<svg width="1440" height="850" viewBox="0 0 1440 850" fill="none" xmlns="http://www.w3.org/2000/svg">
  <defs>
    <!-- Hanok lattice pattern -->
    <pattern id="hanokLattice" width="60" height="60" patternUnits="userSpaceOnUse">
      <path d="M0 30h60 M30 0v60" stroke="rgba(180, 100, 115, 0.045)" stroke-width="1"/>
      <path d="M30 6L54 30L30 54L6 30Z" stroke="rgba(180, 100, 115, 0.035)" stroke-width="0.8"/>
      <rect x="18" y="18" width="24" height="24" stroke="rgba(180, 100, 115, 0.025)" stroke-width="0.8"/>
      <circle cx="30" cy="30" r="2" fill="rgba(232, 89, 125, 0.06)"/>
    </pattern>

    <!-- Ambient central glow -->
    <radialGradient id="koreanGlow" cx="50%" cy="32%" r="65%">
      <stop offset="0%" stop-color="#FFFFFF" stop-opacity="0.95"/>
      <stop offset="45%" stop-color="#FFF9F6" stop-opacity="0.6"/>
      <stop offset="85%" stop-color="#F8ECE6" stop-opacity="0.1"/>
      <stop offset="100%" stop-color="#F0DDD3" stop-opacity="0.35"/>
    </radialGradient>

    <!-- Precise Korean Flag Trigram Bars (사괘 막대) -->
    <!-- Solid bar (양효 - Yang bar) -->
    <rect id="solidTrigramBar" x="-14" y="-2" width="28" height="4" rx="1" fill="currentColor"/>
    <!-- Broken bar (음효 - Yin bar with exact 2.4px center gap) -->
    <g id="brokenTrigramBar">
      <rect x="-14" y="-2" width="12.8" height="4" rx="1" fill="currentColor"/>
      <rect x="1.2" y="-2" width="12.8" height="4" rx="1" fill="currentColor"/>
    </g>
  </defs>

  <!-- Base Grid Texture -->
  <rect width="100%" height="100%" fill="url(#hanokLattice)" />
  <!-- Radial Lighting -->
  <rect width="100%" height="100%" fill="url(#koreanGlow)" />

  <!-- ================= KOREAN CALLIGRAPHY WATERMARKS ================= -->
  <g opacity="0.05" font-family="'Noto Serif KR', 'Playfair Display', serif" font-weight="900" fill="#5A202D">
    <text x="50" y="320" font-size="140" letter-spacing="12">대한민국</text>
    <text x="60" y="440" font-size="38" letter-spacing="8">REPUBLIC OF KOREA · SEOUL</text>
    <text x="1100" y="340" font-size="110" letter-spacing="10">K-뷰티</text>
    <text x="1110" y="430" font-size="34" letter-spacing="6">TRADITIONAL KOREAN ESSENCE</text>
  </g>

  <!-- ================= 1. SOUTH KOREAN FLAG (태극기 - TAEGEUKGI) ACCURATE DESIGN ================= -->
  <!-- Authentic Korean National Flag (대한민국 국기법 규격 표준 반영) -->
  <g transform="translate(100, 45)" opacity="0.3" color="#682535">
    <!-- Flag Pole with Spearhead Finial (국기봉) -->
    <line x1="-7" y1="-14" x2="-7" y2="135" stroke="currentColor" stroke-width="2.5"/>
    <!-- Golden Lotus Bud Finial (무궁화 봉오리 국기봉) -->
    <polygon points="-7,-22 -3,-14 -11,-14" fill="#C9A96E" stroke="currentColor" stroke-width="0.8"/>
    <circle cx="-7" cy="-14" r="3.5" fill="#C9A96E" stroke="currentColor" stroke-width="0.8"/>
    <circle cx="-7" cy="14" r="2.2" fill="currentColor"/>
    <circle cx="-7" cy="106" r="2.2" fill="currentColor"/>

    <!-- Flag Cloth (3:2 Ratio, 180px x 120px) -->
    <rect x="0" y="0" width="180" height="120" rx="4" fill="rgba(255, 255, 255, 0.85)" stroke="currentColor" stroke-width="1.8"/>

    <!-- Central Taegeuk Circle (태극, R=30, Tilted along +33.69° diagonal) -->
    <g transform="translate(90, 60) rotate(33.69)">
      <!-- Upper Red Lobe (Yang - 양) with soft crimson watercolor tint -->
      <path d="M -30 0 A 15 15 0 0 1 0 0 A 15 15 0 0 0 30 0 A 30 30 0 0 0 -30 0 Z" 
            fill="rgba(205, 43, 66, 0.16)" stroke="currentColor" stroke-width="1.6"/>
      <!-- Lower Blue Lobe (Yin - 음) with soft indigo watercolor tint -->
      <path d="M -30 0 A 15 15 0 0 1 0 0 A 15 15 0 0 0 30 0 A 30 30 0 0 1 -30 0 Z" 
            fill="rgba(21, 67, 158, 0.16)" stroke="currentColor" stroke-width="1.6"/>
      <!-- Outer Circle & Dividing S-Curve -->
      <circle cx="0" cy="0" r="30" fill="none" stroke="currentColor" stroke-width="1.8"/>
      <path d="M -30 0 A 15 15 0 0 1 0 0 A 15 15 0 0 0 30 0" fill="none" stroke="currentColor" stroke-width="1.8"/>
    </g>

    <!-- 4 Trigrams (사괘 - 건, 곤, 감, 이) Mathematically Aligned Along Diagonals -->
    <!-- 1. Top-Left: Geon (건 ☰ - Heaven / 3 Solid Bars) -->
    <g transform="translate(90, 60) rotate(33.69) translate(-50, 0)">
      <use href="#solidTrigramBar" y="-6.2"/>
      <use href="#solidTrigramBar" y="0"/>
      <use href="#solidTrigramBar" y="6.2"/>
    </g>

    <!-- 2. Bottom-Right: Gon (곤 ☷ - Earth / 3 Broken Bars) -->
    <g transform="translate(90, 60) rotate(33.69) translate(50, 0)">
      <use href="#brokenTrigramBar" y="-6.2"/>
      <use href="#brokenTrigramBar" y="0"/>
      <use href="#brokenTrigramBar" y="6.2"/>
    </g>

    <!-- 3. Top-Right: Gam (감 ☵ - Water / Broken, Solid, Broken) -->
    <g transform="translate(90, 60) rotate(-33.69) translate(50, 0)">
      <use href="#brokenTrigramBar" y="-6.2"/>
      <use href="#solidTrigramBar" y="0"/>
      <use href="#brokenTrigramBar" y="6.2"/>
    </g>

    <!-- 4. Bottom-Left: Ri (리 ☲ - Fire / Solid, Broken, Solid) -->
    <g transform="translate(90, 60) rotate(-33.69) translate(-50, 0)">
      <use href="#solidTrigramBar" y="-6.2"/>
      <use href="#brokenTrigramBar" y="0"/>
      <use href="#solidTrigramBar" y="6.2"/>
    </g>

    <!-- Label Underneath Flag -->
    <text x="90" y="140" text-anchor="middle" font-family="'Noto Sans KR', sans-serif" font-size="10" font-weight="700" fill="currentColor" letter-spacing="3">대한민국 국기 · 태극기</text>
  </g>

  <!-- ================= 2. TRADITIONAL KOREAN MOON JAR (달항아리 - DALHANGARI) ================= -->
  <!-- Iconic Joseon White Porcelain Symbol of Porcelain Skin & Purity in K-Beauty -->
  <g transform="translate(305, 80)" opacity="0.26" stroke="#682535" stroke-width="1.5" fill="none">
    <!-- Porcelain Body with Graceful Curvature -->
    <path d="M -18 -45 C -45 -20, -52 15, -35 45 C -25 60, -15 62, 0 62 C 15 62, 25 60, 35 45 C 52 15, 45 -20, 18 -45 Z" 
          fill="rgba(255, 255, 255, 0.4)"/>
    <!-- Jar Lip / Rim -->
    <ellipse cx="0" cy="-45" rx="19" ry="5" stroke-width="1.6"/>
    <!-- Jar Base Foot -->
    <path d="M -15 62 Q 0 65, 15 62" stroke-width="1.8"/>
    <!-- Gentle Plum Blossom Branch (매화) emerging from Moon Jar -->
    <path d="M 0 -45 Q -10 -75, -25 -85 Q -32 -90, -42 -92" stroke-width="1.3"/>
    <path d="M -12 -65 Q 5 -80, 14 -95" stroke-width="1.2"/>
    <!-- Blossom Buds -->
    <circle cx="-42" cy="-92" r="3.5" fill="rgba(232, 89, 125, 0.35)"/>
    <circle cx="-25" cy="-85" r="2.8" fill="rgba(232, 89, 125, 0.35)"/>
    <circle cx="14" cy="-95" r="3.2" fill="rgba(232, 89, 125, 0.35)"/>
    <circle cx="5" cy="-80" r="2.5" fill="rgba(232, 89, 125, 0.35)"/>
    <!-- Subtitle -->
    <text x="0" y="80" text-anchor="middle" font-family="'Noto Sans KR', sans-serif" font-size="9" font-weight="700" fill="#682535" stroke="none" letter-spacing="2">달항아리 (백자)</text>
  </g>

  <!-- ================= 3. TRADITIONAL KOREAN NORIGAE (전통 노리개) ================= -->
  <!-- Exquisite Royal Joseon Tassel & Knotwork Charm (매듭 / 옥 노리개) -->
  <g transform="translate(805, 65)" opacity="0.25" stroke="#682535" stroke-width="1.4" fill="none">
    <!-- Top Hanging Cord & Ring -->
    <line x1="0" y1="0" x2="0" y2="18" stroke-width="1.8"/>
    <circle cx="0" cy="22" r="4.5" fill="rgba(201, 169, 110, 0.3)"/>
    <!-- Korean Knots (Dorae-maedeup / 매듭) -->
    <path d="M -8 32 C -8 26, 8 26, 8 32 C 8 38, -8 38, -8 32 Z" fill="rgba(104, 37, 53, 0.08)"/>
    <path d="M -10 40 C -10 34, 10 34, 10 40 C 10 46, -10 46, -10 40 Z" fill="rgba(104, 37, 53, 0.08)"/>
    <!-- Center Carved Jade Medallion (옥 패물) -->
    <rect x="-14" y="48" width="28" height="28" rx="7" fill="rgba(138, 171, 142, 0.2)" stroke-width="1.6"/>
    <circle cx="0" cy="62" r="6" stroke-dasharray="2 2"/>
    <circle cx="0" cy="62" r="2.5" fill="#682535"/>
    <!-- Lower Connecting Knot -->
    <ellipse cx="0" cy="83" rx="7" ry="4" fill="rgba(104, 37, 53, 0.1)"/>
    <!-- Flowing Tripartite Silk Tassels (삼작 술) -->
    <line x1="-6" y1="87" x2="-8" y2="135" stroke-width="1.3"/>
    <line x1="-6" y1="87" x2="-5" y2="136" stroke-width="1.1"/>
    <line x1="0" y1="87" x2="0" y2="138" stroke-width="1.4"/>
    <line x1="6" y1="87" x2="5" y2="136" stroke-width="1.1"/>
    <line x1="6" y1="87" x2="8" y2="135" stroke-width="1.3"/>
    <!-- Tassel Bottom Trim -->
    <ellipse cx="-6" cy="135" rx="3.5" ry="1.5" fill="#682535" opacity="0.5"/>
    <ellipse cx="0" cy="138" rx="3.5" ry="1.5" fill="#682535" opacity="0.5"/>
    <ellipse cx="6" cy="135" rx="3.5" ry="1.5" fill="#682535" opacity="0.5"/>
    <!-- Subtitle -->
    <text x="0" y="153" text-anchor="middle" font-family="'Noto Sans KR', sans-serif" font-size="9" font-weight="700" fill="#682535" stroke="none" letter-spacing="2">전통 노리개</text>
  </g>

  <!-- ================= 4. TRADITIONAL JOSEON SCHOLAR GAT (조선 갓) ================= -->
  <!-- Iconic Joseon Scholar Hat with Woven Crown and Flowing Silk Ribbons -->
  <g transform="translate(1145, 68)" opacity="0.24" stroke="#682535" stroke-width="1.4" fill="none">
    <!-- Cylindrical Woven Crown (총모자) -->
    <path d="M -15 32 L -12 2 Q 0 0, 12 2 L 15 32 Z" fill="rgba(30, 15, 20, 0.08)" stroke-width="1.6"/>
    <!-- Crown Top Plate -->
    <ellipse cx="0" cy="2" rx="12" ry="3.5" stroke-width="1.4"/>
    <!-- Texture lines of horsehair weave -->
    <line x1="-10" y1="12" x2="10" y2="12" stroke-width="0.8" opacity="0.6"/>
    <line x1="-12" y1="22" x2="12" y2="22" stroke-width="0.8" opacity="0.6"/>
    <!-- Broad Translucent Brim (양태) -->
    <ellipse cx="0" cy="32" rx="46" ry="11" stroke-width="1.8" fill="rgba(30, 15, 20, 0.04)"/>
    <ellipse cx="0" cy="32" rx="36" ry="8" stroke-dasharray="3 3" stroke-width="0.9"/>
    <!-- Flowing Silk Gat Ties (갓끈) -->
    <path d="M -12 34 Q -22 65, -16 100 Q -12 125, -20 145" stroke-width="1.3"/>
    <path d="M 12 34 Q 22 65, 16 100 Q 12 125, 20 145" stroke-width="1.3"/>
    <!-- Beads along tie (구슬 갓끈) -->
    <circle cx="-18" cy="75" r="2.5" fill="#C9A96E"/>
    <circle cx="18" cy="75" r="2.5" fill="#C9A96E"/>
    <!-- Subtitle -->
    <text x="0" y="160" text-anchor="middle" font-family="'Noto Sans KR', sans-serif" font-size="9" font-weight="700" fill="#682535" stroke="none" letter-spacing="2">선비 갓</text>
  </g>

  <!-- ================= 5. KOREAN LOTUS BLOSSOM (연꽃 - YEONGGOT) ================= -->
  <!-- Symbol of Purity & Dewy Glass Skin in Korean Tradition -->
  <g transform="translate(605, 55)" opacity="0.22" stroke="#682535" stroke-width="1.4" fill="none">
    <!-- Center Petal -->
    <path d="M 0 35 C -8 18, -6 0, 0 -10 C 6 0, 8 18, 0 35 Z" fill="rgba(255, 117, 160, 0.15)"/>
    <!-- Inner Petals -->
    <path d="M 0 35 C -14 22, -22 10, -16 -4 C -8 5, 0 20, 0 35 Z" fill="rgba(255, 117, 160, 0.1)"/>
    <path d="M 0 35 C 14 22, 22 10, 16 -4 C 8 5, 0 20, 0 35 Z" fill="rgba(255, 117, 160, 0.1)"/>
    <!-- Outer Petals -->
    <path d="M 0 35 C -25 28, -34 16, -26 4 C -18 14, -8 28, 0 35 Z" fill="rgba(255, 117, 160, 0.08)"/>
    <path d="M 0 35 C 25 28, 34 16, 26 4 C 18 14, 8 28, 0 35 Z" fill="rgba(255, 117, 160, 0.08)"/>
    <!-- Water Ripple Base -->
    <ellipse cx="0" cy="38" rx="28" ry="5" stroke-dasharray="4 3"/>
    <ellipse cx="0" cy="42" rx="18" ry="3.5"/>
    <text x="0" y="55" text-anchor="middle" font-family="'Noto Sans KR', sans-serif" font-size="8" font-weight="700" fill="#682535" stroke="none" letter-spacing="2">연꽃</text>
  </g>

  <!-- ================= 6. GWANGHWAMUN PALACE GATE (광화문) ================= -->
  <g transform="translate(435, 78)" opacity="0.16" stroke="#682535" stroke-width="1.6" fill="none">
    <!-- Upper Pagoda Roof curved eaves -->
    <path d="M -5 30 Q 50 18, 105 5 Q 120 -2, 130 -4"/>
    <path d="M 130 -4 Q 140 -2, 155 5 Q 210 18, 265 30"/>
    <!-- Middle Tier Roof -->
    <path d="M 15 52 Q 70 42, 130 35 Q 190 42, 245 52"/>
    <!-- Pillars and windows -->
    <line x1="35" y1="52" x2="35" y2="75"/>
    <line x1="75" y1="48" x2="75" y2="75"/>
    <line x1="130" y1="45" x2="130" y2="75"/>
    <line x1="185" y1="48" x2="185" y2="75"/>
    <line x1="225" y1="52" x2="225" y2="75"/>
    <rect x="25" y="75" width="210" height="8" fill="rgba(104, 37, 53, 0.05)"/>
    <!-- Stone Base Wall (석축) -->
    <rect x="10" y="83" width="240" height="42" fill="none" stroke-width="1.8"/>
    <!-- Central Arched Hongyemun Gate (홍예문) -->
    <path d="M 100 125 V 105 A 30 30 0 0 1 160 105 V 125"/>
    <!-- Left Small Arch -->
    <path d="M 35 125 V 112 A 18 18 0 0 1 71 112 V 125"/>
    <!-- Right Small Arch -->
    <path d="M 189 125 V 112 A 18 18 0 0 1 225 112 V 125"/>
    <text x="130" y="142" text-anchor="middle" font-family="'Noto Sans KR', sans-serif" font-size="9" font-weight="700" fill="#682535" stroke="none" letter-spacing="3">경복궁 광화문</text>
  </g>

  <!-- ================= 7. N SEOUL TOWER (N서울타워) ================= -->
  <g transform="translate(1265, 55)" opacity="0.22" stroke="#682535" stroke-width="1.5" fill="none">
    <!-- Namsan Mountain Curve -->
    <path d="M -60 150 Q 30 110, 120 150" stroke-width="2"/>
    <!-- Tower Base -->
    <line x1="26" y1="120" x2="34" y2="120"/>
    <line x1="28" y1="120" x2="28" y2="60"/>
    <line x1="32" y1="120" x2="32" y2="60"/>
    <line x1="24" y1="75" x2="36" y2="75"/>
    <!-- Observation Pod -->
    <ellipse cx="30" cy="52" rx="14" ry="7"/>
    <ellipse cx="30" cy="46" rx="10" ry="5"/>
    <!-- Antenna Spire -->
    <line x1="30" y1="41" x2="30" y2="0" stroke-width="2"/>
    <circle cx="30" cy="0" r="2.5" fill="#682535"/>
    <!-- Signal rings -->
    <path d="M 22 15 A 10 10 0 0 1 38 15" stroke-dasharray="2 2"/>
    <path d="M 16 22 A 18 18 0 0 1 44 22" stroke-dasharray="2 3"/>
    <!-- Label -->
    <text x="30" y="170" text-anchor="middle" font-family="'Noto Sans KR', sans-serif" font-size="10" font-weight="700" fill="#682535" stroke="none" letter-spacing="2">N 서울타워</text>
  </g>

  <!-- ================= 8. KOREAN NATIONAL FLOWER: MUGUNGHWA (무궁화) ================= -->
  <!-- Left Side Mugunghwa Blossom (Hibiscus Syriacus) -->
  <g transform="translate(240, 210)" opacity="0.25" stroke="#682535" stroke-width="1.6" fill="none">
    <path d="M0 0 C -15 -25, -35 -20, -30 0 C -25 15, -10 10, 0 0"/>
    <path d="M0 0 C -25 10, -30 30, -10 35 C 10 35, 10 15, 0 0"/>
    <path d="M0 0 C 15 15, 30 30, 35 10 C 35 -10, 15 -5, 0 0"/>
    <path d="M0 0 C 15 -10, 30 -25, 15 -35 C -5 -35, -5 -15, 0 0"/>
    <path d="M0 0 C -5 -30, 5 -40, 20 -30 C 30 -20, 10 -5, 0 0"/>
    <line x1="0" y1="0" x2="0" y2="-18" stroke-width="2"/>
    <circle cx="0" cy="-18" r="3" fill="#682535"/>
    <text x="0" y="52" text-anchor="middle" font-family="'Noto Sans KR', sans-serif" font-size="9" font-weight="700" fill="#682535" stroke="none" letter-spacing="2">무궁화</text>
  </g>

  <!-- Right Side Mugunghwa Blossom -->
  <g transform="translate(1010, 210)" opacity="0.24" stroke="#682535" stroke-width="1.6" fill="none">
    <path d="M0 0 C -15 -25, -35 -20, -30 0 C -25 15, -10 10, 0 0"/>
    <path d="M0 0 C -25 10, -30 30, -10 35 C 10 35, 10 15, 0 0"/>
    <path d="M0 0 C 15 15, 30 30, 35 10 C 35 -10, 15 -5, 0 0"/>
    <path d="M0 0 C 15 -10, 30 -25, 15 -35 C -5 -35, -5 -15, 0 0"/>
    <path d="M0 0 C -5 -30, 5 -40, 20 -30 C 30 -20, 10 -5, 0 0"/>
    <line x1="0" y1="0" x2="0" y2="-18" stroke-width="2"/>
    <circle cx="0" cy="-18" r="3" fill="#682535"/>
    <text x="0" y="52" text-anchor="middle" font-family="'Noto Sans KR', sans-serif" font-size="9" font-weight="700" fill="#682535" stroke="none" letter-spacing="2">무궁화</text>
  </g>

  <!-- ================= 9. TRADITIONAL KOREAN FAN (부채 - BUCHAE) ================= -->
  <g transform="translate(945, 65)" opacity="0.2" stroke="#682535" stroke-width="1.4" fill="none">
    <path d="M -50 40 A 70 70 0 0 1 50 40"/>
    <path d="M -25 55 A 35 35 0 0 1 25 55"/>
    <line x1="0" y1="75" x2="-45" y2="42"/>
    <line x1="0" y1="75" x2="-30" y2="40"/>
    <line x1="0" y1="75" x2="-15" y2="39"/>
    <line x1="0" y1="75" x2="0" y2="38"/>
    <line x1="0" y1="75" x2="15" y2="39"/>
    <line x1="0" y1="75" x2="30" y2="40"/>
    <line x1="0" y1="75" x2="45" y2="42"/>
    <line x1="0" y1="75" x2="0" y2="105" stroke-width="2.5"/>
    <circle cx="0" cy="105" r="3" fill="#682535"/>
    <path d="M 0 108 Q -4 118, 0 128 M 0 108 Q 4 118, 0 128"/>
    <text x="0" y="140" text-anchor="middle" font-family="'Noto Sans KR', sans-serif" font-size="9" font-weight="700" fill="#682535" stroke="none" letter-spacing="2">전통 부채</text>
  </g>

  <!-- ================= 10. TRADITIONAL JOSEON CLOUDS (구름문양 - GUREUM-MUN) ================= -->
  <g transform="translate(35, 185)" opacity="0.32" stroke="#682535" stroke-width="1.6" fill="none">
    <path d="M20 60 C 10 60, 0 50, 0 38 C 0 25, 12 15, 25 15 C 28 8, 38 0, 52 0 C 68 0, 80 12, 80 26 C 88 20, 102 22, 108 32 C 115 44, 108 60, 95 60 Z"/>
    <path d="M15 45 C 25 35, 45 35, 55 45 C 65 38, 80 40, 90 48"/>
    <path d="M40 28 C 48 20, 62 20, 70 28"/>
    <circle cx="28" cy="40" r="2.5" fill="#682535" opacity="0.3"/>
  </g>

  <g transform="translate(1335, 205)" opacity="0.32" stroke="#682535" stroke-width="1.6" fill="none">
    <path d="M110 60 C 120 60, 130 50, 130 38 C 130 25, 118 15, 105 15 C 102 8, 92 0, 78 0 C 62 0, 50 12, 50 26 C 42 20, 28 22, 22 32 C 15 44, 22 60, 35 60 Z"/>
    <path d="M115 45 C 105 35, 85 35, 75 45 C 65 38, 50 40, 40 48"/>
    <circle cx="102" cy="40" r="2.5" fill="#682535" opacity="0.3"/>
  </g>

  <!-- ================= 11. TRADITIONAL ROYAL RED SEAL STAMPS (낙관) ================= -->
  <!-- Authentic Korean Seal Stamp Right -->
  <g transform="translate(1200, 18)" opacity="0.75">
    <rect x="0" y="0" width="56" height="56" rx="8" fill="none" stroke="#9A3043" stroke-width="2.2"/>
    <rect x="4" y="4" width="48" height="48" rx="5" fill="rgba(154, 48, 67, 0.06)" stroke="#9A3043" stroke-width="1"/>
    <text x="14" y="24" font-family="'Noto Sans KR', sans-serif" font-weight="900" font-size="14" fill="#9A3043">서</text>
    <text x="32" y="24" font-family="'Noto Sans KR', sans-serif" font-weight="900" font-size="14" fill="#9A3043">울</text>
    <text x="14" y="42" font-family="'Noto Sans KR', sans-serif" font-weight="900" font-size="14" fill="#9A3043">정</text>
    <text x="32" y="42" font-family="'Noto Sans KR', sans-serif" font-weight="900" font-size="14" fill="#9A3043">품</text>
  </g>

  <!-- Authentic Korean Seal Stamp Left -->
  <g transform="translate(25, 15)" opacity="0.65">
    <rect x="0" y="0" width="46" height="46" rx="7" fill="none" stroke="#9A3043" stroke-width="2"/>
    <text x="8" y="28" font-family="'Noto Serif KR', serif" font-weight="900" font-size="15" fill="#9A3043">韓國</text>
  </g>

  <!-- ================= 12. KOREAN SKINCARE DESIGNS (스킨케어 제품 디자인) ================= -->
  <!-- Left Flank: K-Beauty Glow Serum Ampoule & Centella Essence Flask -->
  
  <!-- Skincare 1: K-Beauty Glow Ampoule / Dropper Bottle (스킨 세럼) -->
  <g transform="translate(130, 470)" opacity="0.45" color="#682535">
    <!-- Serum Bottle Body Shadow & Glass -->
    <rect x="-24" y="-35" width="48" height="92" rx="14" fill="rgba(255, 255, 255, 0.78)" stroke="currentColor" stroke-width="1.8"/>
    <!-- Glass Inner Serum Level (#F497AD tone from intro) -->
    <rect x="-20" y="-8" width="40" height="60" rx="10" fill="rgba(255, 117, 160, 0.25)"/>
    <!-- Glass Highlight Reflection -->
    <path d="M-18 -20 L-18 42 Q-18 46 -15 48" stroke="rgba(255, 255, 255, 0.95)" stroke-width="2" stroke-linecap="round" fill="none"/>
    <path d="M-13 -26 L-13 -10" stroke="rgba(255, 255, 255, 0.85)" stroke-width="1.5" stroke-linecap="round" fill="none"/>
    <!-- Dropper Pipette Stem inside bottle -->
    <line x1="0" y1="-35" x2="0" y2="40" stroke="currentColor" stroke-width="1.4" opacity="0.6"/>
    <path d="M-3 36 L0 44 L3 36" stroke="currentColor" stroke-width="1.2" fill="none"/>
    <!-- Dropper Pipette Suspended Droplet -->
    <path d="M0 49 C-3.5 53 -3.5 58 0 61 C3.5 58 3.5 53 0 49 Z" fill="rgba(255, 117, 160, 0.6)" stroke="currentColor" stroke-width="1.2"/>
    <!-- Bottle Neck -->
    <rect x="-14" y="-45" width="28" height="10" rx="2" fill="rgba(255, 255, 255, 0.9)" stroke="currentColor" stroke-width="1.6"/>
    <!-- Metallic Collar -->
    <rect x="-16" y="-55" width="32" height="10" rx="3" fill="rgba(201, 169, 110, 0.28)" stroke="currentColor" stroke-width="1.6"/>
    <line x1="-14" y1="-50" x2="14" y2="-50" stroke="currentColor" stroke-width="0.8" opacity="0.5"/>
    <!-- Soft Rubber Bulb Squeeze Cap -->
    <path d="M-12 -55 C-12 -72 12 -72 12 -55 Z" fill="rgba(255, 117, 160, 0.35)" stroke="currentColor" stroke-width="1.8"/>
    <!-- Measurement Scale Ticks -->
    <line x1="16" y1="-2" x2="20" y2="-2" stroke="currentColor" stroke-width="1.2"/>
    <line x1="18" y1="12" x2="20" y2="12" stroke="currentColor" stroke-width="1"/>
    <line x1="16" y1="26" x2="20" y2="26" stroke-width="1.2"/>
    <!-- Minimalist K-Beauty Product Label -->
    <rect x="-16" y="-2" width="32" height="34" rx="4" fill="rgba(255, 255, 255, 0.92)" stroke="currentColor" stroke-width="0.8"/>
    <text x="0" y="10" text-anchor="middle" font-family="'Noto Sans KR', sans-serif" font-size="7.5" font-weight="800" fill="currentColor" stroke="none" letter-spacing="1">세럼</text>
    <line x1="-10" y1="14" x2="10" y2="14" stroke="currentColor" stroke-width="0.6" opacity="0.6"/>
    <text x="0" y="21" text-anchor="middle" font-family="'Inter', sans-serif" font-size="5" font-weight="700" fill="currentColor" stroke="none" letter-spacing="0.5">GLOW 30ml</text>
    <text x="0" y="28" text-anchor="middle" font-family="'Inter', sans-serif" font-size="4" font-weight="600" fill="#9A3043" stroke="none">SEOUL LAB</text>
    <!-- Label underneath -->
    <text x="0" y="74" text-anchor="middle" font-family="'Noto Sans KR', sans-serif" font-size="9" font-weight="700" fill="currentColor" stroke="none" letter-spacing="1.5">글로우 앰플 세럼</text>
  </g>

  <!-- Skincare 2: Centella Calming Essence Toner Bottle (진정 토너) -->
  <g transform="translate(265, 505)" opacity="0.42" color="#682535">
    <!-- Cylindrical Flask Body -->
    <rect x="-20" y="-45" width="40" height="110" rx="10" fill="rgba(255, 255, 255, 0.74)" stroke="currentColor" stroke-width="1.8"/>
    <!-- Toner Liquid Tint -->
    <rect x="-17" y="-20" width="34" height="80" rx="7" fill="rgba(255, 117, 160, 0.18)"/>
    <!-- Glass Light Reflection -->
    <line x1="-14" y1="-32" x2="-14" y2="50" stroke="rgba(255, 255, 255, 0.88)" stroke-width="2" stroke-linecap="round"/>
    <!-- Eco Wooden / Rose Gold Cap -->
    <rect x="-16" y="-62" width="32" height="17" rx="3" fill="rgba(201, 169, 110, 0.3)" stroke="currentColor" stroke-width="1.6"/>
    <line x1="-12" y1="-53" x2="12" y2="-53" stroke="currentColor" stroke-width="0.8" opacity="0.6"/>
    <!-- Delicate Botanical Centella Leaf Motif on Bottle -->
    <g transform="translate(0, -2)" opacity="0.8" stroke="currentColor" stroke-width="0.9" fill="none">
      <path d="M0 16 Q0 0 -5 -10 M0 3 Q4 -6 10 -4 M-2 -3 Q-8 -1 -8 5"/>
      <ellipse cx="-5" cy="-10" rx="3.5" ry="2" fill="rgba(122, 150, 136, 0.35)"/>
      <ellipse cx="10" cy="-4" rx="3" ry="1.8" fill="rgba(122, 150, 136, 0.35)"/>
      <ellipse cx="-8" cy="5" rx="3" ry="1.8" fill="rgba(122, 150, 136, 0.35)"/>
    </g>
    <!-- Label Stamp -->
    <rect x="-14" y="16" width="28" height="34" rx="3" fill="rgba(255, 255, 255, 0.92)" stroke="currentColor" stroke-width="0.7"/>
    <text x="0" y="27" text-anchor="middle" font-family="'Noto Sans KR', sans-serif" font-size="7" font-weight="800" fill="currentColor" stroke="none">진정</text>
    <text x="0" y="36" text-anchor="middle" font-family="'Inter', sans-serif" font-size="4.5" font-weight="700" fill="currentColor" stroke="none">TONER</text>
    <text x="0" y="44" text-anchor="middle" font-family="'Inter', sans-serif" font-size="4" font-weight="600" fill="#7A9688" stroke="none">CICA 95%</text>
    <!-- Subtitle -->
    <text x="0" y="80" text-anchor="middle" font-family="'Noto Sans KR', sans-serif" font-size="9" font-weight="700" fill="currentColor" stroke="none" letter-spacing="1.5">진정 에센스 토너</text>
  </g>

  <!-- Right Flank: Moisture Cream Jar with Spatula & Daily Sun Essence Tube -->

  <!-- Skincare 3: Luxury Moisture Cream Jar with Spatula (수분 크림 & 스패출러) -->
  <g transform="translate(1160, 510)" opacity="0.45" color="#682535">
    <!-- Jar Body (Double wall thick luxury cosmetic glass) -->
    <path d="M-34 -10 L-36 34 C-36 44 -26 50 0 50 C26 50 36 44 36 34 L34 -10 Z" fill="rgba(255, 255, 255, 0.82)" stroke="currentColor" stroke-width="1.8"/>
    <!-- Inner Cream Cavity -->
    <path d="M-28 -8 L-30 26 C-30 36 -20 42 0 42 C20 42 30 36 30 26 L28 -8 Z" fill="rgba(255, 117, 160, 0.25)"/>
    <!-- Cream Surface Gentle Swirl -->
    <ellipse cx="0" cy="-6" rx="26" ry="7" fill="rgba(255, 255, 255, 0.88)" stroke="currentColor" stroke-width="1"/>
    <!-- Jar Gloss Highlights -->
    <path d="M-28 8 Q-30 28 -22 36" stroke="rgba(255, 255, 255, 0.95)" stroke-width="2" stroke-linecap="round" fill="none"/>
    <!-- Rose-Gold / Bronze Ribbed Screw Lid -->
    <rect x="-37" y="-28" width="74" height="18" rx="5" fill="rgba(201, 169, 110, 0.3)" stroke="currentColor" stroke-width="1.8"/>
    <!-- Lid Crown bevel -->
    <line x1="-33" y1="-22" x2="33" y2="-22" stroke="currentColor" stroke-width="0.8" opacity="0.6"/>
    <ellipse cx="0" cy="-28" rx="35" ry="4" fill="rgba(255, 255, 255, 0.55)" stroke="currentColor" stroke-width="1.4"/>
    <!-- Jar Center Label -->
    <rect x="-20" y="8" width="40" height="26" rx="4" fill="rgba(255, 255, 255, 0.94)" stroke="currentColor" stroke-width="0.8"/>
    <text x="0" y="19" text-anchor="middle" font-family="'Noto Sans KR', sans-serif" font-size="7.5" font-weight="800" fill="currentColor" stroke="none">수분 크림</text>
    <line x1="-12" y1="23" x2="12" y2="23" stroke="currentColor" stroke-width="0.5" opacity="0.5"/>
    <text x="0" y="30" text-anchor="middle" font-family="'Inter', sans-serif" font-size="4.8" font-weight="700" fill="#9A3043" stroke="none">CERAMIDE 50g</text>
    <!-- Ergonomic Cosmetic Spatula Spoon (스패출러) resting diagonally -->
    <g transform="rotate(-28) translate(-10, -5)">
      <path d="M-38 32 C-25 31 -10 33 24 33 C30 33 34 30 36 27 C34 24 30 24 24 26 C-10 26 -25 28 -38 27 C-43 27 -45 32 -38 32 Z" fill="rgba(201, 169, 110, 0.35)" stroke="currentColor" stroke-width="1.2"/>
      <circle cx="-38" cy="29.5" r="1.5" fill="currentColor"/>
    </g>
    <!-- Subtitle -->
    <text x="0" y="68" text-anchor="middle" font-family="'Noto Sans KR', sans-serif" font-size="9" font-weight="700" fill="currentColor" stroke="none" letter-spacing="1.5">세라마이드 수분 크림</text>
  </g>

  <!-- Skincare 4: Sunscreen / Sun Essence Squeeze Tube (선 에센스 SPF50+) -->
  <g transform="translate(1295, 490)" opacity="0.45" color="#682535">
    <!-- Tube Body Tilted slightly for elegance -->
    <g transform="rotate(-6)">
      <!-- Squeeze Tube Shell -->
      <path d="M-18 -60 L18 -60 L14 30 L-14 30 Z" fill="rgba(255, 255, 255, 0.82)" stroke="currentColor" stroke-width="1.8"/>
      <!-- Soft Rose Layer inside Tube -->
      <path d="M-15 -35 L15 -35 L12 25 L-12 25 Z" fill="rgba(255, 117, 160, 0.22)"/>
      <!-- Crimped Top Edge with Textured Ridges -->
      <rect x="-19" y="-68" width="38" height="9" rx="1.5" fill="rgba(201, 169, 110, 0.28)" stroke="currentColor" stroke-width="1.4"/>
      <line x1="-15" y1="-68" x2="-15" y2="-59" stroke="currentColor" stroke-width="0.8" opacity="0.6"/>
      <line x1="-10" y1="-68" x2="-10" y2="-59" stroke="currentColor" stroke-width="0.8" opacity="0.6"/>
      <line x1="-5" y1="-68" x2="-5" y2="-59" stroke="currentColor" stroke-width="0.8" opacity="0.6"/>
      <line x1="0" y1="-68" x2="0" y2="-59" stroke="currentColor" stroke-width="0.8" opacity="0.6"/>
      <line x1="5" y1="-68" x2="5" y2="-59" stroke="currentColor" stroke-width="0.8" opacity="0.6"/>
      <line x1="10" y1="-68" x2="10" y2="-59" stroke="currentColor" stroke-width="0.8" opacity="0.6"/>
      <line x1="15" y1="-68" x2="15" y2="-59" stroke="currentColor" stroke-width="0.8" opacity="0.6"/>
      <!-- Screw Cap at Bottom -->
      <rect x="-11" y="30" width="22" height="15" rx="3" fill="rgba(255, 255, 255, 0.92)" stroke="currentColor" stroke-width="1.6"/>
      <line x1="-8" y1="35" x2="8" y2="35" stroke="currentColor" stroke-width="0.8" opacity="0.5"/>
      <!-- Sun Rays Motif (☀️) -->
      <circle cx="0" cy="-22" r="6" fill="rgba(255, 117, 160, 0.45)" stroke="currentColor" stroke-width="1.2"/>
      <line x1="0" y1="-32" x2="0" y2="-29" stroke="currentColor" stroke-width="1.2"/>
      <line x1="0" y1="-12" x2="0" y2="-15" stroke="currentColor" stroke-width="1.2"/>
      <line x1="-10" y1="-22" x2="-7" y2="-22" stroke="currentColor" stroke-width="1.2"/>
      <line x1="10" y1="-22" x2="7" y2="-22" stroke="currentColor" stroke-width="1.2"/>
      <line x1="-7" y1="-29" x2="-5" y2="-27" stroke="currentColor" stroke-width="1.2"/>
      <line x1="7" y1="-29" x2="5" y2="-27" stroke="currentColor" stroke-width="1.2"/>
      <!-- Tube Labels -->
      <text x="0" y="-6" text-anchor="middle" font-family="'Noto Sans KR', sans-serif" font-size="7.5" font-weight="800" fill="currentColor" stroke="none">선 에센스</text>
      <text x="0" y="5" text-anchor="middle" font-family="'Inter', sans-serif" font-size="5" font-weight="700" fill="#9A3043" stroke="none">SPF 50+ PA++++</text>
      <text x="0" y="14" text-anchor="middle" font-family="'Inter', sans-serif" font-size="4.5" font-weight="600" fill="currentColor" stroke="none">DAILY WATER 50ml</text>
    </g>
    <!-- Subtitle -->
    <text x="0" y="65" text-anchor="middle" font-family="'Noto Sans KR', sans-serif" font-size="9" font-weight="700" fill="currentColor" stroke="none" letter-spacing="1.5">데일리 선 에센스</text>
  </g>

</svg>
